<svg xmlns="http://www.w3.org/2000/svg" viewBox="0 0 40 40"><path d="M28.3,14.8c0,0.1,0.1,0.4,0.2,0.9c0.1,0.4,0.3,0.7,0.5,1c0.2,0.3,0.5,0.5,0.9,0.7s0.7,0.3,0.9,0.4c0.3,0.1,0.6,0.2,1.1,0.3 c4.5,1.3,6.8,3.6,6.8,6.9c0,2-0.7,3.7-2.2,5.1c-1.5,1.3-3.2,2-5.3,2c-0.8,0-1.6-0.1-2.3-0.4c-0.7-0.3-1.4-0.6-1.9-1 c-0.5-0.4-1.1-0.9-1.6-1.6c-0.5-0.7-1-1.3-1.3-1.8c-0.3-0.6-0.7-1.3-1.1-2.2c-0.4-0.9-0.7-1.6-0.9-2.2c-0.2-0.6-0.5-1.3-0.8-2.2 c-0.3-0.9-0.6-1.6-0.7-2c-0.4-1.1-0.9-2.1-1.3-2.8c-0.4-0.7-0.9-1.4-1.5-2c-0.6-0.6-1.3-1.1-2.2-1.3c-0.8-0.3-1.8-0.4-3-0.4 c-1.3,0-2.6,0.4-3.8,1.2c-1.2,0.8-2.2,1.8-2.9,3c-0.7,1.2-1.1,2.5-1.1,3.9c0,2.2,0.7,4.2,2.2,5.8s3.3,2.5,5.5,2.5 c2.5,0,4.3-0.7,5.4-2c0.8-0.9,1.4-1.7,1.7-2.4l1.8,3.2c-0.2,0.5-0.5,1-0.9,1.5l0,0c-1.8,2.1-4.5,3.2-8.1,3.2c-2,0-3.9-0.6-5.6-1.7 s-3-2.5-4-4.3c-0.9-1.8-1.4-3.7-1.4-5.7c0-1.5,0.3-2.9,0.9-4.3s1.4-2.6,2.4-3.7s2.2-1.9,3.6-2.5s2.8-1,4.3-1c1.2,0,2.3,0.1,3.3,0.4 s1.9,0.6,2.6,1c0.7,0.4,1.4,1,2,1.7c0.6,0.7,1.1,1.4,1.5,2.1c0.4,0.7,0.8,1.5,1.2,2.4c0.4,0.9,0.8,1.8,1.1,2.6 c0.3,0.8,0.6,1.7,1,2.7c0.4,1,0.8,1.9,1.1,2.7c1.3,2.8,3,4.2,4.9,4.2c1.1,0,2.1-0.3,2.9-1c0.8-0.7,1.2-1.6,1.2-2.7 c0-0.6-0.1-1.1-0.4-1.5s-0.6-0.7-1.1-1c-0.4-0.2-0.9-0.4-1.5-0.7c-0.6-0.2-1.2-0.4-1.8-0.6c-0.6-0.2-1.2-0.4-1.8-0.7 c-0.6-0.3-1.2-0.7-1.7-1.1c-0.5-0.4-1-1-1.4-1.7s-0.7-1.6-0.8-2.6c0-0.2-0.1-0.5-0.1-0.7c0-1.5,0.6-2.9,1.8-4 c1.2-1.1,2.6-1.7,4.1-1.6c1.1,0,1.9,0.1,2.5,0.3c0.6,0.2,1.2,0.5,1.9,1.1h0c0.2,0.2,0.3,0.3,0.5,0.5s0.3,0.4,0.5,0.8 c0.2,0.3,0.3,0.5,0.4,0.6l-2.7,2.1c-0.4-0.7-0.7-1.2-1.1-1.5v0c-0.3-0.3-1-0.4-2-0.4c-0.7,0-1.3,0.2-1.8,0.7 C28.5,13.5,28.3,14.1,28.3,14.8L28.3,14.8z" fill="#fff"/></svg>