<svg xmlns="http://www.w3.org/2000/svg" viewBox="0 0 40 40"><path d="M20,38.5C9.8,38.5,1.5,30.2,1.5,20S9.8,1.5,20,1.5S38.5,9.8,38.5,20S30.2,38.5,20,38.5z M20,3.5 C10.9,3.5,3.5,10.9,3.5,20S10.9,36.5,20,36.5S36.5,29.1,36.5,20S29.1,3.5,20,3.5z M32.5,17.5l-0.1,3h-2.1l0.1-1.1 c0-0.6-0.1-2.4-0.1-4l-0.1-2.9l0.2-0.1c0.3-0.1,1.8-0.1,2.1,0c0.2,0.1,0.2,0.1,0.1,1.1C32.6,14,32.6,15.8,32.5,17.5z M24.3,24.3 c-1.2-0.2-2.1-0.8-2.5-1.8l-0.3-0.6v-3.1v-3.1h2.3v2.8c0,2.6,0.1,2.9,0.2,3.2c0.3,0.6,0.7,0.8,1.7,0.8c0.4,0,0.9,0,0.9-0.1 c0.1-0.1,0.1-2.7,0.1-4.8v-2h2.1l0.1,0.9c0,0.5,0.1,2.4,0.1,4.1v3.2l-0.9,0.2C27,24.4,25.2,24.4,24.3,24.3z M17.2,24.4 c-0.6,0.1-1.1,0-1.2,0c-0.1,0-0.6-0.1-0.9-0.2c-0.6-0.1-0.6-0.1-0.6-0.4c0.1-0.6,0.4-1.3,0.4-1.3c0.1,0,0.3,0,0.6,0.1 c0.7,0.2,1.7,0.3,2.2,0.1c0.6-0.1,0.9-0.4,0.9-0.8c0-0.5-0.3-0.7-1.4-1.1c-1.8-0.6-2.3-1-2.5-2.1c-0.1-0.6,0.1-1.3,0.4-1.8 c0.4-0.6,1.3-1,2.1-1.1c0.8-0.1,2.1,0,2.8,0.2c0.4,0.1,0.4,0.1,0.4,0.5c0,0.2-0.1,0.6-0.1,0.8l-0.1,0.4l-0.6-0.2 c-0.5-0.1-0.9-0.2-1.4-0.1c-0.9,0.1-1.1,0.2-1.1,0.8c0,0.4,0.1,0.5,1.6,1c1.1,0.4,1.5,0.6,1.8,1.1c0.5,0.7,0.5,1.9,0,2.7 C19.8,23.8,18.8,24.4,17.2,24.4z M11.7,24.1c-0.8,0.2-2.3,0.4-2.9,0.1c-1.6-0.4-2.6-1.5-2.8-3.3c-0.4-2.3,0.4-4.2,2.2-5.1 c0.7-0.4,2.3-0.4,3.2-0.1c1.1,0.4,2,1.1,2.5,2.3c0.3,0.7,0.4,2.3,0.2,3.2C13.7,22.5,12.8,23.7,11.7,24.1z M11.7,19.7 c0-0.9-0.1-1.1-0.3-1.5c-0.3-0.6-0.7-0.8-1.5-0.8c-1,0-1.5,0.6-1.7,1.9c-0.1,0.9,0,2,0.3,2.6c0.3,0.6,0.7,0.8,1.3,0.8 c0.3,0.1,0.7,0,0.9-0.1C11.5,22.1,11.7,21.3,11.7,19.7z M31.5,21.8c0.9,0,1.1,0,1.1,0.1c0.1,0.2,0.1,2.1,0,2.2 c-0.1,0.2-1.7,0.3-2.1,0.1l-0.3-0.1v-1.1c0-0.7,0-1.1,0.1-1.2C30.4,21.8,30.6,21.8,31.5,21.8z" fill="#fff"/></svg>